# xmcd
#
# Track frame offsets: 
#        182
#        15055
#        37165
#        61907
#        103792
#        128855
#        151280
#        171115
#        187930
#        209130
#
# Disc length: 3314 seconds
#
# Revision: 1
# Processed by: cddbd v1.5.2PL0 Copyright (c) Steve Scherf et al.
# Submitted via: ExactAudioCopyFreeDBPlugin 1.0
#
DISCID=810cf00a
DTITLE=Bojan Zulfikarpašič - Solobsession
DYEAR=2000
DGENRE=Jazz
TTITLE0=Fingering
TTITLE1=Who's Bob
TTITLE2=Multi Don Kulti
TTITLE3=Solobsession
TTITLE4=Don't Buy Ivory, Anymore
TTITLE5=Tout Neuf
TTITLE6=Zulfikar-Pacha
TTITLE7=Valse Hot
TTITLE8=Mothers of the Veil
TTITLE9=Uci Me Majko, Karaj Me
EXTD=YEAR: 2000
EXTT0=
EXTT1=
EXTT2=
EXTT3=
EXTT4=
EXTT5=
EXTT6=
EXTT7=
EXTT8=
EXTT9=
PLAYORDER=
